<svg width="24" height="24" viewBox="0 0 24 24" fill="none" xmlns="http://www.w3.org/2000/svg">
<path d="M23.4704 11.4685C23.4724 11.4685 23.474 11.4685 23.4761 11.4685C23.6223 11.4685 23.7616 11.4072 23.8607 11.2998C23.9613 11.1908 24.011 11.0447 23.9979 10.8969C23.4719 5.1111 18.8914 0.528767 13.1054 0.00168844C12.9587 -0.00983813 12.811 0.03784 12.702 0.138959C12.5931 0.239555 12.5323 0.381541 12.5338 0.529815C12.625 8.21908 13.6393 11.3611 23.4704 11.4685ZM23.4704 12.5311C13.6393 12.6385 12.6255 15.7805 12.5344 23.4698C12.5328 23.618 12.5936 23.76 12.7025 23.8606C12.8 23.9502 12.9273 24 13.0583 24C13.074 24 13.0902 23.9995 13.106 23.9979C18.892 23.4708 23.4724 18.889 23.9979 13.1027C24.011 12.9549 23.9618 12.8088 23.8607 12.6998C23.7595 12.5908 23.6186 12.5368 23.4704 12.5311ZM10.8595 0.00430817C5.09179 0.546581 0.525965 5.12787 0.00258419 10.898C-0.0105134 11.0457 0.0387336 11.1919 0.139847 11.3009C0.238865 11.4083 0.378747 11.4691 0.524393 11.4691C0.526488 11.4691 0.528584 11.4691 0.53068 11.4691C10.3293 11.3564 11.3409 8.21594 11.4331 0.531911C11.4347 0.383637 11.3734 0.241127 11.2644 0.140531C11.1544 0.0399357 11.0072 -0.00931414 10.8595 0.00430817ZM0.530156 12.5305C0.367222 12.5122 0.239389 12.5897 0.139323 12.6987C0.0387337 12.8077 -0.0110373 12.9539 0.00206033 13.1016C0.525441 18.8717 5.09179 23.453 10.8595 23.9953C10.8757 23.9969 10.8925 23.9974 10.9087 23.9974C11.0397 23.9974 11.1665 23.9481 11.2639 23.8585C11.3729 23.7579 11.4342 23.6154 11.4326 23.4672C11.3404 15.7837 10.3293 12.6432 0.530156 12.5305Z" fill="#252525"/>
</svg>
