<svg width="165" height="31" viewBox="0 0 165 31" fill="none" xmlns="http://www.w3.org/2000/svg">
<path d="M12.8738 30.6566C12.0729 30.6566 11.3492 30.1787 11.0346 29.4422L1.34245 6.75157C0.778846 5.43211 1.74689 3.96595 3.18168 3.96595H6.97794C7.78585 3.96595 8.51442 4.45203 8.82464 5.19802L17.0028 24.8645C17.4397 25.9152 16.6676 27.0724 15.5297 27.0724C14.386 27.0724 13.6139 25.9044 14.0619 24.8521L22.4361 5.18251C22.7501 4.44479 23.4744 3.96595 24.2762 3.96595H27.3943C28.8301 3.96595 29.7982 5.43405 29.2326 6.75379L19.508 29.4444C19.1929 30.1798 18.4698 30.6566 17.6697 30.6566H12.8738Z" fill="#121212"/>
<path d="M40.7998 30.9997C38.3595 30.9997 36.2242 30.5422 34.394 29.6271C32.5892 28.6865 31.1784 27.4156 30.1617 25.8141C29.1703 24.1873 28.6746 22.3443 28.6746 20.2854C28.6746 18.2264 29.1576 16.3962 30.1235 14.7947C31.1149 13.1679 32.4748 11.9096 34.2034 11.0199C35.9319 10.1048 37.8765 9.64724 40.0372 9.64724C42.0708 9.64724 43.9264 10.0667 45.6041 10.9055C47.2818 11.7189 48.6163 12.9264 49.6077 14.5278C50.599 16.1292 51.0947 18.0738 51.0947 20.3616C51.0947 20.6158 51.082 20.9081 51.0566 21.2386C51.0167 21.7571 50.5821 22.1537 50.0621 22.1537H36.5293C35.4764 22.1537 34.6228 21.3001 34.6228 20.2472C34.6228 19.1943 35.4764 18.3408 36.5293 18.3408H44.8322C45.309 18.3408 45.4328 19.0005 44.9884 19.1733C44.7013 19.285 44.3925 19.0673 44.3677 18.7602C44.3135 18.0889 44.1409 17.4915 43.8501 16.9681C43.4943 16.2818 42.9859 15.748 42.325 15.3667C41.6895 14.9854 40.9396 14.7947 40.0753 14.7947C39.211 14.7947 38.4485 14.9854 37.7875 15.3667C37.1521 15.748 36.6564 16.2945 36.3005 17.0062C35.9446 17.6926 35.7667 18.506 35.7667 19.4465V20.5523C35.7667 21.569 35.97 22.446 36.3768 23.1832C36.8089 23.9204 37.419 24.4923 38.207 24.899C38.995 25.2803 39.9355 25.471 41.0286 25.471C42.0453 25.471 42.9096 25.3312 43.6214 25.0515C43.8308 24.9649 44.0392 24.8659 44.2466 24.7546C45.1808 24.2533 46.3691 24.2762 47.1039 25.0404L48.3131 26.298C49.042 27.056 49.0704 28.2701 48.2254 28.896C47.5421 29.4021 46.7827 29.8238 45.9473 30.1609C44.4983 30.7201 42.7825 30.9997 40.7998 30.9997Z" fill="#121212"/>
<path d="M63.5133 30.9997C60.8697 30.9997 58.8107 30.3515 57.3363 29.0551C55.862 27.7333 55.1248 25.7506 55.1248 23.1069V7.37674C55.1248 6.27217 56.0203 5.37674 57.1248 5.37674H60.3694C61.474 5.37674 62.3694 6.27217 62.3694 7.37674V23.0307C62.3694 23.7678 62.5728 24.3525 62.9795 24.7846C63.3862 25.1913 63.9073 25.3947 64.5428 25.3947C65.7176 25.3947 67.1434 25.8476 67.5348 26.9552L68.0279 28.3505C68.3328 29.2134 68.0145 30.1991 67.1427 30.4777C66.8764 30.5628 66.5944 30.6352 66.2968 30.6947C65.4071 30.8981 64.4793 30.9997 63.5133 30.9997ZM54.1126 16.1674C53.008 16.1674 52.1126 15.2719 52.1126 14.1674V12.753C52.1126 11.6484 53.008 10.753 54.1126 10.753H65.0975C66.202 10.753 67.0975 11.6484 67.0975 12.753V14.1674C67.0975 15.2719 66.202 16.1674 65.0975 16.1674H54.1126Z" fill="#121212"/>
<path d="M73.5342 30.6566C72.4296 30.6566 71.5342 29.7611 71.5342 28.6566V5.96595C71.5342 4.86138 72.4296 3.96595 73.5342 3.96595H83.7356C86.1759 3.96595 88.273 4.35995 90.027 5.14796C91.8064 5.93597 93.179 7.07986 94.145 8.57961C95.1109 10.054 95.5939 11.8079 95.5939 13.8415C95.5939 15.8496 95.1109 17.5909 94.145 19.0652C93.179 20.5396 91.8064 21.6834 90.027 22.4969C88.273 23.2849 86.1759 23.6789 83.7356 23.6789H78.1124C77.2415 23.6789 76.8106 22.6213 77.4334 22.0127C78.0485 21.4115 79.0838 21.8473 79.0838 22.7074V28.6566C79.0838 29.7611 78.1884 30.6566 77.0838 30.6566H73.5342ZM79.0838 18.7299C79.0838 19.6281 77.9908 20.0702 77.3664 19.4245C76.7532 18.7903 77.2025 17.7307 78.0846 17.7307H83.2781C84.8541 17.7307 86.0234 17.3875 86.786 16.7012C87.574 16.0149 87.968 15.0616 87.968 13.8415C87.968 12.5959 87.574 11.63 86.786 10.9436C86.0234 10.2573 84.8541 9.91414 83.2781 9.91414H78.0846C77.2025 9.91414 76.7532 8.85449 77.3664 8.22037C77.9908 7.57464 79.0838 8.01668 79.0838 8.91496V18.7299Z" fill="#121212"/>
<path d="M100.932 30.6566C99.8271 30.6566 98.9317 29.7611 98.9317 28.6566V11.9904C98.9317 10.8858 99.8271 9.9904 100.932 9.9904H104.526C105.248 9.9904 105.833 10.5754 105.833 11.2971V14.2541C105.833 14.7487 105.182 14.9292 104.927 14.505C104.849 14.3751 104.835 14.2159 104.895 14.0767C105.511 12.6374 106.471 11.5549 107.778 10.8293C108.658 10.3237 109.659 9.98035 110.78 9.79914C111.871 9.62289 112.773 10.5427 112.773 11.6472V15.2863C112.773 15.7496 112.359 16.0911 111.896 16.0911C111.667 16.0657 111.413 16.053 111.133 16.053C109.659 16.053 108.464 16.4597 107.549 17.2731C106.634 18.0611 106.176 19.3575 106.176 21.1623V28.6566C106.176 29.7611 105.281 30.6566 104.176 30.6566H100.932Z" fill="#121212"/>
<path d="M125.798 30.9997C123.536 30.9997 121.528 30.5422 119.774 29.6271C118.02 28.712 116.635 27.4537 115.618 25.8523C114.626 24.2254 114.131 22.3698 114.131 20.2854C114.131 18.2009 114.626 16.358 115.618 14.7566C116.635 13.1551 118.02 11.9096 119.774 11.0199C121.528 10.1048 123.536 9.64724 125.798 9.64724C128.061 9.64724 130.069 10.1048 131.823 11.0199C133.602 11.9096 134.988 13.1551 135.979 14.7566C136.97 16.358 137.466 18.2009 137.466 20.2854C137.466 22.3698 136.97 24.2254 135.979 25.8523C134.988 27.4537 133.602 28.712 131.823 29.6271C130.069 30.5422 128.061 30.9997 125.798 30.9997ZM125.798 25.2422C126.637 25.2422 127.374 25.0515 128.01 24.6702C128.671 24.2889 129.192 23.7297 129.573 22.9925C129.954 22.23 130.145 21.3276 130.145 20.2854C130.145 19.2431 129.954 18.3662 129.573 17.6544C129.192 16.9173 128.671 16.358 128.01 15.9767C127.374 15.5954 126.637 15.4048 125.798 15.4048C124.985 15.4048 124.248 15.5954 123.587 15.9767C122.951 16.358 122.43 16.9173 122.024 17.6544C121.642 18.3662 121.452 19.2431 121.452 20.2854C121.452 21.3276 121.642 22.23 122.024 22.9925C122.43 23.7297 122.951 24.2889 123.587 24.6702C124.248 25.0515 124.985 25.2422 125.798 25.2422Z" fill="#121212"/>
<path d="M143.512 30.6566C142.407 30.6566 141.512 29.7611 141.512 28.6566V10.2192C141.512 7.72806 142.249 5.74533 143.723 4.27099C145.223 2.77123 147.358 2.02135 150.129 2.02135C151.019 2.02135 151.896 2.11032 152.76 2.28826C153 2.33765 153.229 2.39389 153.447 2.45699C154.355 2.71915 154.71 3.72616 154.397 4.61724L153.51 7.14618C153.319 7.69184 152.671 7.92789 152.112 7.7789C151.731 7.6518 151.349 7.58825 150.968 7.58825C150.205 7.58825 149.608 7.81703 149.176 8.27458C148.769 8.70671 148.566 9.38033 148.566 10.2954V11.7825L148.756 14.7947V28.6566C148.756 29.7611 147.861 30.6566 146.756 30.6566H143.512ZM140.5 16.1674C139.395 16.1674 138.5 15.2719 138.5 14.1674V12.753C138.5 11.6484 139.395 10.753 140.5 10.753H151.485C152.589 10.753 153.485 11.6484 153.485 12.753V14.1674C153.485 15.2719 152.589 16.1674 151.485 16.1674H140.5ZM158.802 30.6566C157.697 30.6566 156.802 29.7611 156.802 28.6566V11.9904C156.802 10.8858 157.697 9.9904 158.802 9.9904H162.046C163.151 9.9904 164.046 10.8858 164.046 11.9904V28.6566C164.046 29.7611 163.151 30.6566 162.046 30.6566H158.802ZM160.424 7.70264C159.102 7.70264 158.035 7.33405 157.221 6.59688C156.408 5.85971 156.001 4.94461 156.001 3.85156C156.001 2.75852 156.408 1.84341 157.221 1.10624C158.035 0.369073 159.102 0.000488281 160.424 0.000488281C161.746 0.000488281 162.814 0.356363 163.627 1.06811C164.44 1.75444 164.847 2.64413 164.847 3.73717C164.847 4.88106 164.44 5.83429 163.627 6.59688C162.839 7.33405 161.771 7.70264 160.424 7.70264Z" fill="#121212"/>
<path d="M157.221 6.59688C158.035 7.33405 159.103 7.70264 160.424 7.70264C161.772 7.70264 162.839 7.33405 163.627 6.59688C164.441 5.83429 164.847 4.88106 164.847 3.73717C164.847 2.64413 164.441 1.75444 163.627 1.06811C162.814 0.356363 161.746 0.000488281 160.424 0.000488281C159.103 0.000488281 158.035 0.369073 157.221 1.10624C156.408 1.84341 156.001 2.75852 156.001 3.85156C156.001 4.94461 156.408 5.85971 157.221 6.59688Z" fill="#86C155"/>
</svg>
