<svg width="44" height="44" viewBox="0 0 44 44" fill="none" xmlns="http://www.w3.org/2000/svg">
<g clip-path="url(#clip0_649_9510)">
<path d="M29.9348 19.6458C30.7424 20.3813 31.5383 21.1552 32.2515 21.983C32.5693 22.3483 32.9079 22.688 33.2538 23.0266C33.3846 23.1559 33.5154 23.2852 33.6462 23.4146C33.8488 23.6145 34.0515 23.8143 34.2548 24.0135C36.3792 26.0984 38.0441 28.3796 38.0911 31.4794C38.0997 34.1424 37.1971 36.4428 35.3364 38.3496C33.6261 40.0402 31.3237 40.8539 28.9502 40.9224C27.7553 40.8991 26.6853 40.6442 25.5529 40.2821C22.9614 39.4664 20.6225 39.5718 18.0648 40.4019C17.2037 40.6809 16.3725 40.8512 15.4688 40.9063C15.3795 40.9117 15.3795 40.9117 15.2885 40.9173C13.9688 40.9555 12.4005 40.7325 11.2578 40.0469C11.1194 39.7701 11.1211 39.4869 11.1719 39.1875C11.3438 38.9673 11.3438 38.9673 11.6016 38.8438C12.0383 38.8438 12.4016 38.9628 12.8154 39.0962C14.703 39.6977 16.4777 39.4184 18.3157 38.8061C20.8582 37.9606 23.4379 38.0893 25.9692 38.8874C26.7978 39.148 27.6594 39.4071 28.5313 39.4453C28.5956 39.4488 28.66 39.4522 28.7263 39.4557C30.9336 39.5163 32.9331 38.5799 34.5254 37.0982C36.0007 35.5315 36.656 33.4809 36.6278 31.3608C36.5736 29.6187 35.875 27.854 34.6647 26.5957C34.5011 26.4247 34.3471 26.2514 34.1932 26.0719C33.8539 25.6832 33.493 25.3195 33.1262 24.9568C33.0579 24.8888 32.9896 24.8209 32.9193 24.7508C32.7029 24.5355 32.4863 24.3205 32.2695 24.1055C31.9837 23.822 31.6982 23.5381 31.4128 23.2542C31.316 23.1584 31.316 23.1584 31.2172 23.0607C30.866 22.711 30.5298 22.3538 30.207 21.9776C28.5024 20.0004 26.2153 18.6448 23.6328 18.2188C23.5426 18.203 23.4525 18.1873 23.3596 18.1711C20.5585 17.8446 17.7505 18.5916 15.5275 20.3352C15.0857 20.6953 14.6735 21.0866 14.2656 21.4844C14.2225 21.5262 14.1794 21.5681 14.1349 21.6112C13.7592 21.9768 13.391 22.3455 13.0497 22.7439C12.7194 23.1223 12.3683 23.4757 12.0104 23.8279C11.8749 23.9623 11.7394 24.0967 11.6039 24.2312C11.3935 24.4395 11.1829 24.6477 10.9721 24.8556C9.06898 26.7344 7.41726 28.6846 7.36986 31.5054C7.36234 33.6705 8.05301 35.5528 9.55216 37.126C9.7806 37.3718 9.87814 37.5119 9.91504 37.8501C9.88282 38.1563 9.88282 38.1563 9.75391 38.3657C9.51685 38.5139 9.32878 38.581 9.0466 38.5648C8.03274 38.228 7.31882 36.7596 6.85352 35.8521C5.74938 33.6117 5.64841 31.1185 6.37012 28.7461C6.77655 27.6023 7.35238 26.5993 8.16407 25.6953C8.22891 25.6227 8.29376 25.5501 8.36057 25.4753C9.05002 24.7134 9.77591 23.9905 10.5059 23.2676C10.7483 23.0275 10.9904 22.7871 11.2323 22.5465C11.2864 22.4931 11.3405 22.4398 11.3962 22.3848C11.7207 22.0621 12.0265 21.7283 12.3256 21.382C14.4778 18.9103 17.2915 17.0461 20.6146 16.693C24.0673 16.4551 27.3123 17.3303 29.9348 19.6458Z" fill="black"/>
<path d="M26.9844 22.258C27.1514 22.3479 27.1514 22.3479 27.2909 22.4846C27.3483 22.5396 27.4057 22.5946 27.4648 22.6513C27.5331 22.72 27.6015 22.7888 27.6719 22.8596C27.762 22.9478 27.8521 23.036 27.9424 23.124C28.2002 23.3765 28.4556 23.6313 28.7104 23.8869C28.8711 24.048 29.0322 24.2087 29.1934 24.3694C29.2958 24.4718 29.3981 24.5742 29.5004 24.6767C29.5485 24.7247 29.5967 24.7727 29.6463 24.8221C29.9095 25.0869 30.0552 25.2417 30.1318 25.6096C30.1263 26.0483 29.8098 26.3057 29.5202 26.6029C29.4135 26.7068 29.4135 26.7068 29.3047 26.8127C29.214 26.9046 29.214 26.9046 29.1214 26.9984C28.8509 27.2566 28.6605 27.4003 28.3003 27.5163C28.0156 27.5002 28.0156 27.5002 27.7632 27.3767C27.5674 27.1334 27.5145 26.9677 27.5309 26.6543C27.6218 26.3481 27.8295 26.1587 28.0559 25.9413C28.2239 25.7718 28.2239 25.7718 28.1875 25.4377C28.0616 25.2644 28.0616 25.2644 27.8867 25.1034C27.8247 25.0425 27.7626 24.9815 27.6987 24.9187C27.6331 24.856 27.5676 24.7933 27.5 24.7287C27.4344 24.6647 27.3688 24.6007 27.3013 24.5347C27.1391 24.3766 26.9762 24.2193 26.8125 24.0627C26.4448 24.2046 26.2007 24.4811 25.9303 24.7563C25.8772 24.8097 25.824 24.8631 25.7693 24.9181C25.6541 25.0339 25.5391 25.1499 25.4243 25.2661C25.2427 25.45 25.0605 25.6333 24.8781 25.8164C24.4912 26.2053 24.1049 26.5949 23.7187 26.9846C23.2712 27.4362 22.8235 27.8874 22.375 28.338C22.1954 28.5186 22.0164 28.6998 21.8374 28.881C21.7274 28.9917 21.6173 29.1023 21.5072 29.2129C21.4575 29.2635 21.4079 29.314 21.3567 29.3661C21.0243 29.6986 20.8186 29.9032 20.3428 29.9112C19.9056 29.7871 19.6904 29.5527 19.3819 29.2294C19.3236 29.1704 19.2654 29.1114 19.2053 29.0506C19.0202 28.8626 18.837 28.6729 18.6538 28.4831C18.5283 28.3551 18.4027 28.2271 18.277 28.0993C17.9697 27.7863 17.6641 27.4719 17.3594 27.1565C16.9047 27.5394 16.9047 27.5394 16.4735 27.948C16.4289 27.9929 16.3843 28.0378 16.3384 28.084C16.2942 28.1289 16.2501 28.1737 16.2046 28.22C16.1581 28.2668 16.1116 28.3137 16.0638 28.362C15.9512 28.4756 15.8388 28.5894 15.7266 28.7034C15.863 29.0355 16.0754 29.2448 16.3282 29.4963C16.3936 29.5618 16.3936 29.5618 16.4603 29.6286C16.6041 29.7722 16.7484 29.9152 16.8928 30.0582C16.9927 30.1579 17.0927 30.2576 17.1926 30.3573C17.4553 30.6193 17.7185 30.8808 17.9818 31.1423C18.2505 31.4092 18.5188 31.6767 18.7871 31.9441C19.3133 32.4685 19.8401 32.9924 20.3672 33.5159C20.9014 33.0784 21.3848 32.5943 21.8706 32.1048C22.0203 31.954 22.1703 31.8035 22.3203 31.653C22.6381 31.3343 22.9556 31.0152 23.2729 30.696C23.6424 30.3246 24.012 29.9532 24.3819 29.5822C24.5298 29.4338 24.6774 29.2852 24.825 29.1365C24.9151 29.0461 25.0052 28.9556 25.0954 28.8652C25.1741 28.7861 25.2528 28.7069 25.3339 28.6253C25.6178 28.3561 25.8188 28.3239 26.2126 28.3304C26.3828 28.3596 26.3828 28.3596 26.603 28.5369C26.7716 28.8812 26.7584 29.0252 26.6406 29.3909C26.1495 30.0731 25.4762 30.6553 24.8833 31.2486C24.7713 31.3609 24.6593 31.4731 24.5473 31.5854C24.3138 31.8195 24.0801 32.0533 23.8463 32.2871C23.5468 32.5866 23.2478 32.8867 22.9491 33.1869C22.7185 33.4184 22.4876 33.6495 22.2566 33.8805C22.1461 33.991 22.0359 34.1017 21.9257 34.2125C21.7721 34.367 21.618 34.5209 21.4637 34.6746C21.4184 34.7203 21.3732 34.7661 21.3266 34.8132C20.9955 35.1414 20.8138 35.3187 20.3414 35.3233C19.9146 35.2043 19.7075 34.9882 19.4043 34.6754C19.3164 34.5877 19.3164 34.5877 19.2266 34.4984C19.0338 34.3056 18.8428 34.111 18.6518 33.9163C18.5181 33.7819 18.3843 33.6476 18.2504 33.5133C17.8986 33.1601 17.5484 32.8052 17.1985 32.4501C16.912 32.1599 16.6244 31.8707 16.3367 31.5817C15.9944 31.2377 15.6526 30.8933 15.311 30.5487C15.2128 30.4496 15.2128 30.4496 15.1126 30.3486C14.9282 30.1624 14.7442 29.976 14.5602 29.7893C14.5052 29.7338 14.4502 29.6784 14.3936 29.6212C13.9412 29.161 13.9412 29.161 13.8765 28.7802C13.9433 28.2873 14.2141 28.0699 14.5617 27.7319C14.6272 27.6662 14.6928 27.6004 14.7603 27.5327C14.899 27.3944 15.0385 27.2567 15.1786 27.1198C15.3928 26.9101 15.6041 26.6979 15.8152 26.4851C15.9504 26.3509 16.0858 26.2168 16.2214 26.0829C16.2845 26.0195 16.3476 25.956 16.4127 25.8906C16.6714 25.6401 16.8634 25.4617 17.2049 25.3383C17.758 25.3693 18.0954 25.807 18.4621 26.1799C18.5168 26.2349 18.5715 26.2899 18.6279 26.3465C18.8017 26.5212 18.9748 26.6965 19.1479 26.8718C19.266 26.9907 19.3841 27.1096 19.5023 27.2285C19.791 27.5191 20.0792 27.8103 20.3672 28.1018C20.6063 27.9928 20.7801 27.8816 20.9635 27.6939C21.0109 27.646 21.0582 27.598 21.107 27.5486C21.1578 27.4962 21.2087 27.4438 21.2611 27.3897C21.3155 27.3344 21.3699 27.2791 21.4259 27.222C21.5439 27.102 21.6617 26.9817 21.7793 26.8613C21.9656 26.6709 22.1525 26.4812 22.3398 26.2917C22.872 25.7529 23.4037 25.2135 23.933 24.6719C24.257 24.3405 24.5824 24.0107 24.9088 23.6817C25.0328 23.5561 25.1564 23.4299 25.2793 23.3032C25.4513 23.1261 25.625 22.9509 25.7993 22.776C25.8496 22.7232 25.9 22.6704 25.9518 22.6161C26.288 22.284 26.4928 22.1901 26.9844 22.258Z" fill="black"/>
<path d="M31.7808 3.88847C31.9031 3.99317 32.0231 4.10064 32.1406 4.21074C32.1987 4.26424 32.2567 4.31775 32.3165 4.37288C33.107 5.17716 33.5808 6.29084 33.7734 7.39043C33.7929 7.50032 33.8124 7.61021 33.8325 7.72343C34.0468 9.88418 33.4852 12.077 32.1316 13.7882C31.3004 14.7975 30.1248 15.7236 28.7891 15.8982C27.5418 15.9967 26.487 15.8258 25.4771 15.0412C24.6603 14.3416 24.1554 13.5603 23.8047 12.5467C23.7771 12.469 23.7495 12.3914 23.7211 12.3114C23.1575 10.3741 23.5455 8.20209 24.4543 6.44377C25.2786 4.95883 26.4442 3.76633 28.0851 3.24797C29.3877 2.94978 30.6832 3.08032 31.7808 3.88847ZM26.4688 5.92949C25.1915 7.50138 24.7862 9.26546 24.9219 11.2576C25.0702 12.3557 25.5663 13.2612 26.3828 14.0076C27.1023 14.5095 27.7486 14.5913 28.6172 14.5232C29.7945 14.2751 30.7311 13.4261 31.3752 12.4443C32.3562 10.842 32.7437 9.08107 32.3048 7.23768C32.0244 6.24503 31.4925 5.32855 30.5887 4.7935C29.0617 4.03134 27.5506 4.78129 26.4688 5.92949Z" fill="black"/>
<path d="M18.063 4.47402C19.4006 5.73355 20.3522 7.5906 20.4683 9.43703C20.51 11.4083 20.3568 13.1881 18.9295 14.6949C18.5018 15.1212 18.0376 15.5422 17.4131 15.5653C17.1471 15.4513 17.0108 15.3627 16.8437 15.1249C16.7908 14.8138 16.81 14.6656 16.9727 14.3944C17.1512 14.2158 17.3164 14.083 17.5205 13.9379C18.3829 13.3075 18.8273 12.2928 18.9922 11.2577C19.1559 9.38428 18.7753 7.646 17.6172 6.13906C16.9115 5.32076 16.063 4.66223 14.9531 4.55458C14.1406 4.52267 13.4216 4.78474 12.796 5.30687C11.9218 6.22913 11.6062 7.476 11.5693 8.71718C11.599 9.7656 11.8283 10.7449 12.2891 11.6874C12.3261 11.7667 12.3631 11.846 12.4012 11.9278C12.9576 13.0407 13.7996 13.796 14.9155 14.3246C15.125 14.4374 15.125 14.4374 15.2485 14.5878C15.3212 14.8785 15.2844 15.0942 15.2109 15.3827C15.0217 15.6083 14.893 15.6358 14.604 15.6889C13.4376 15.5222 12.3793 14.4745 11.6875 13.578C10.4154 11.7519 9.84882 9.5108 10.2319 7.30458C10.506 5.90572 11.1992 4.62221 12.375 3.78115C14.2725 2.6733 16.4354 3.01405 18.063 4.47402Z" fill="black"/>
<path d="M42.148 12.7626C43.1351 13.4833 43.791 14.4252 44 15.6409C44.1783 17.775 43.6675 19.6595 42.2813 21.3127C41.3789 22.3539 40.0979 23.2823 38.6802 23.3874C37.4893 23.4415 36.527 23.2976 35.5781 22.5159C35.0714 22.0384 34.7212 21.5277 34.4609 20.883C34.4197 20.785 34.4197 20.785 34.3777 20.685C33.8792 19.2404 34.1525 17.4915 34.782 16.1357C35.6155 14.4341 36.8758 13.13 38.6719 12.4612C39.8095 12.1266 41.1163 12.1275 42.148 12.7626ZM36.8672 15.383C35.8453 16.7534 35.4563 18.1504 35.5781 19.8518C35.7152 20.622 36.1448 21.2317 36.7755 21.6917C37.4257 22.0818 38.1911 22.1073 38.922 21.9445C40.3642 21.4589 41.4272 20.42 42.1094 19.0784C42.6132 17.9075 42.8978 16.5385 42.5015 15.2864C42.214 14.6458 41.7427 14.081 41.0996 13.7825C39.484 13.2565 37.8903 14.156 36.8672 15.383Z" fill="black"/>
<path d="M5.75781 12.6329C5.8713 12.6796 5.8713 12.6796 5.98709 12.7272C6.55077 12.985 7.01333 13.3417 7.47656 13.75C7.54214 13.8074 7.60772 13.8648 7.67529 13.9239C8.91609 15.0829 9.74008 16.8052 9.82406 18.4981C9.85146 19.4102 9.81685 20.2069 9.45312 21.0547C9.4174 21.1486 9.4174 21.1486 9.38095 21.2444C9.01617 22.0967 8.29502 22.7198 7.47656 23.1172C7.41984 23.1464 7.36312 23.1755 7.30469 23.2055C6.39491 23.5911 5.18885 23.4584 4.28714 23.1337C4.20527 23.0999 4.12341 23.0661 4.03906 23.0313C3.92557 22.9846 3.92557 22.9846 3.80978 22.937C3.2461 22.6792 2.78354 22.3224 2.32031 21.9141C2.25473 21.8567 2.18915 21.7993 2.12158 21.7402C1.32365 20.9949 0.723084 20.0131 0.343748 18.9922C0.310071 18.9023 0.276395 18.8123 0.241697 18.7197C-0.215197 17.2919 -0.196173 15.6493 0.454191 14.2932C0.983672 13.3227 1.73506 12.7173 2.77283 12.366C3.77119 12.1268 4.81557 12.244 5.75781 12.6329ZM2.02255 14.4318C1.31175 15.3886 1.29683 16.3845 1.375 17.5313C1.57459 18.8127 2.26864 19.8976 3.17969 20.7969C3.24914 20.8692 3.24914 20.8692 3.32001 20.9429C4.09641 21.6862 5.11533 22.0316 6.16601 22.0175C6.83256 21.9758 7.24577 21.7069 7.73001 21.2545C8.47468 20.4105 8.48701 19.4227 8.44096 18.3566C8.31709 16.9049 7.47261 15.6745 6.44531 14.6954C5.19407 13.6573 3.28053 13.0549 2.02255 14.4318Z" fill="black"/>
</g>
<defs>
<clipPath id="clip0_649_9510">
<rect width="44" height="44" fill="white"/>
</clipPath>
</defs>
</svg>
