<svg width="164" height="32" viewBox="0 0 164 32" fill="none" xmlns="http://www.w3.org/2000/svg">
<path d="M11.8741 31.1564C11.0731 31.1564 10.3494 30.6786 10.0348 29.9421L0.34269 7.25145C-0.22091 5.93198 0.747136 4.46583 2.18193 4.46583H5.97819C6.7861 4.46583 7.51467 4.95191 7.82488 5.6979L16.003 25.3644C16.4399 26.4151 15.6679 27.5723 14.53 27.5723C13.3863 27.5723 12.6141 26.4043 13.0621 25.352L21.4363 5.68239C21.7504 4.94467 22.4747 4.46583 23.2765 4.46583H26.3945C27.8304 4.46583 28.7984 5.93393 28.2328 7.25367L18.5083 29.9443C18.1931 30.6796 17.47 31.1564 16.67 31.1564H11.8741Z" fill="black"/>
<path d="M39.8 31.4996C37.3597 31.4996 35.2245 31.0421 33.3943 30.1269C31.5895 29.1864 30.1787 27.9154 29.1619 26.314C28.1705 24.6871 27.6749 22.8442 27.6749 20.7852C27.6749 18.7262 28.1578 16.896 29.1238 15.2946C30.1151 13.6677 31.4751 12.4095 33.2036 11.5198C34.9322 10.6047 36.8768 10.1471 39.0374 10.1471C41.071 10.1471 42.9266 10.5665 44.6043 11.4054C46.282 12.2188 47.6166 13.4262 48.6079 15.0277C49.5993 16.6291 50.095 18.5737 50.095 20.8615C50.095 21.1157 50.0823 21.408 50.0568 21.7385C50.017 22.257 49.5824 22.6536 49.0623 22.6536H35.5295C34.4766 22.6536 33.6231 21.8 33.6231 20.7471C33.6231 19.6942 34.4766 18.8406 35.5295 18.8406H43.8325C44.3093 18.8406 44.433 19.5004 43.9887 19.6732C43.7015 19.7848 43.3927 19.5672 43.3679 19.2601C43.3137 18.5888 43.1412 17.9914 42.8504 17.468C42.4945 16.7816 41.9861 16.2478 41.3252 15.8665C40.6897 15.4852 39.9398 15.2946 39.0756 15.2946C38.2113 15.2946 37.4487 15.4852 36.7878 15.8665C36.1523 16.2478 35.6566 16.7944 35.3007 17.5061C34.9449 18.1924 34.7669 19.0059 34.7669 19.9464V21.0521C34.7669 22.0689 34.9703 22.9459 35.377 23.6831C35.8091 24.4202 36.4192 24.9922 37.2072 25.3989C37.9952 25.7802 38.9358 25.9708 40.0288 25.9708C41.0456 25.9708 41.9099 25.831 42.6216 25.5514C42.831 25.4647 43.0395 25.3658 43.2469 25.2545C44.181 24.7532 45.3693 24.7761 46.1041 25.5403L47.3134 26.7979C48.0422 27.5559 48.0707 28.77 47.2257 29.3959C46.5423 29.902 45.783 30.3236 44.9475 30.6608C43.4986 31.22 41.7828 31.4996 39.8 31.4996Z" fill="black"/>
<path d="M62.5136 31.4996C59.8699 31.4996 57.8109 30.8514 56.3366 29.555C54.8622 28.2332 54.1251 26.2505 54.1251 23.6068V7.87661C54.1251 6.77204 55.0205 5.87662 56.1251 5.87662H59.3697C60.4742 5.87662 61.3697 6.77205 61.3697 7.87662V23.5306C61.3697 24.2677 61.573 24.8524 61.9797 25.2845C62.3865 25.6912 62.9076 25.8946 63.5431 25.8946C64.7178 25.8946 66.1437 26.3474 66.5351 27.4551L67.0281 28.8503C67.3331 29.7133 67.0148 30.6989 66.143 30.9776C65.8766 31.0627 65.5946 31.135 65.297 31.1946C64.4073 31.3979 63.4795 31.4996 62.5136 31.4996ZM53.1129 16.6673C52.0083 16.6673 51.1129 15.7718 51.1129 14.6673V13.2529C51.1129 12.1483 52.0083 11.2529 53.1129 11.2529H64.0977C65.2023 11.2529 66.0977 12.1483 66.0977 13.2529V14.6673C66.0977 15.7718 65.2023 16.6673 64.0977 16.6673H53.1129Z" fill="black"/>
<path d="M72.5344 31.1564C71.4299 31.1564 70.5344 30.261 70.5344 29.1564V6.46583C70.5344 5.36126 71.4299 4.46583 72.5344 4.46583H82.7359C85.1762 4.46583 87.2733 4.85983 89.0272 5.64784C90.8066 6.43585 92.1793 7.57973 93.1452 9.07949C94.1112 10.5538 94.5941 12.3078 94.5941 14.3414C94.5941 16.3495 94.1112 18.0908 93.1452 19.5651C92.1793 21.0394 90.8066 22.1833 89.0272 22.9967C87.2733 23.7847 85.1762 24.1788 82.7359 24.1788H77.1126C76.2418 24.1788 75.8108 23.1212 76.4336 22.5125C77.0488 21.9114 78.0841 22.3472 78.0841 23.2073V29.1564C78.0841 30.261 77.1886 31.1564 76.0841 31.1564H72.5344ZM78.0841 19.2297C78.0841 20.128 76.9911 20.5701 76.3666 19.9243C75.7534 19.2902 76.2028 18.2306 77.0849 18.2306H82.2783C83.8543 18.2306 85.0236 17.8874 85.7862 17.2011C86.5742 16.5147 86.9682 15.5615 86.9682 14.3414C86.9682 13.0958 86.5742 12.1298 85.7862 11.4435C85.0236 10.7572 83.8543 10.414 82.2783 10.414H77.0849C76.2028 10.414 75.7534 9.35437 76.3666 8.72025C76.9911 8.07452 78.0841 8.51656 78.0841 9.41484V19.2297Z" fill="black"/>
<path d="M99.9319 31.1564C98.8274 31.1564 97.9319 30.261 97.9319 29.1564V12.4903C97.9319 11.3857 98.8274 10.4903 99.9319 10.4903H103.527C104.248 10.4903 104.833 11.0753 104.833 11.797V14.754C104.833 15.2486 104.182 15.429 103.927 15.0049C103.85 14.875 103.836 14.7158 103.895 14.5766C104.511 13.1373 105.472 12.0548 106.778 11.3291C107.659 10.8236 108.659 10.4802 109.781 10.299C110.871 10.1228 111.773 11.0425 111.773 12.1471V15.7861C111.773 16.2494 111.359 16.591 110.896 16.591C110.667 16.5656 110.413 16.5529 110.133 16.5529C108.659 16.5529 107.464 16.9596 106.549 17.773C105.634 18.561 105.177 19.8574 105.177 21.6622V29.1564C105.177 30.261 104.281 31.1564 103.177 31.1564H99.9319Z" fill="black"/>
<path d="M124.799 31.4996C122.536 31.4996 120.528 31.0421 118.774 30.1269C117.02 29.2118 115.635 27.9536 114.618 26.3521C113.627 24.7253 113.131 22.8696 113.131 20.7852C113.131 18.7008 113.627 16.8579 114.618 15.2565C115.635 13.655 117.02 12.4095 118.774 11.5198C120.528 10.6047 122.536 10.1471 124.799 10.1471C127.061 10.1471 129.069 10.6047 130.823 11.5198C132.602 12.4095 133.988 13.655 134.979 15.2565C135.971 16.8579 136.466 18.7008 136.466 20.7852C136.466 22.8696 135.971 24.7253 134.979 26.3521C133.988 27.9536 132.602 29.2118 130.823 30.1269C129.069 31.0421 127.061 31.4996 124.799 31.4996ZM124.799 25.7421C125.637 25.7421 126.375 25.5514 127.01 25.1701C127.671 24.7888 128.192 24.2296 128.573 23.4924C128.955 22.7298 129.145 21.8274 129.145 20.7852C129.145 19.743 128.955 18.8661 128.573 18.1543C128.192 17.4171 127.671 16.8579 127.01 16.4766C126.375 16.0953 125.637 15.9047 124.799 15.9047C123.985 15.9047 123.248 16.0953 122.587 16.4766C121.952 16.8579 121.431 17.4171 121.024 18.1543C120.642 18.8661 120.452 19.743 120.452 20.7852C120.452 21.8274 120.642 22.7298 121.024 23.4924C121.431 24.2296 121.952 24.7888 122.587 25.1701C123.248 25.5514 123.985 25.7421 124.799 25.7421Z" fill="black"/>
<path d="M142.512 31.1564C141.408 31.1564 140.512 30.261 140.512 29.1564V10.7191C140.512 8.22793 141.249 6.2452 142.724 4.77086C144.223 3.27111 146.359 2.52123 149.129 2.52123C150.019 2.52123 150.896 2.61019 151.76 2.78813C152 2.83752 152.229 2.89377 152.448 2.95687C153.355 3.21903 153.71 4.22604 153.398 5.11712L152.511 7.64606C152.319 8.19172 151.671 8.42777 151.112 8.27877C150.731 8.15168 150.35 8.08813 149.968 8.08813C149.206 8.08813 148.608 8.3169 148.176 8.77446C147.769 9.20659 147.566 9.88021 147.566 10.7953V12.2824L147.757 15.2946V29.1564C147.757 30.261 146.861 31.1564 145.757 31.1564H142.512ZM139.5 16.6673C138.395 16.6673 137.5 15.7718 137.5 14.6673V13.2529C137.5 12.1483 138.395 11.2529 139.5 11.2529H150.485C151.589 11.2529 152.485 12.1483 152.485 13.2529V14.6673C152.485 15.7718 151.589 16.6673 150.485 16.6673H139.5ZM157.802 31.1564C156.697 31.1564 155.802 30.261 155.802 29.1564V12.4903C155.802 11.3857 156.697 10.4903 157.802 10.4903H161.047C162.151 10.4903 163.047 11.3857 163.047 12.4903V29.1564C163.047 30.261 162.151 31.1564 161.047 31.1564H157.802ZM159.424 8.20251C158.102 8.20251 157.035 7.83393 156.221 7.09676C155.408 6.35959 155.001 5.44448 155.001 4.35144C155.001 3.2584 155.408 2.34329 156.221 1.60612C157.035 0.868951 158.102 0.500366 159.424 0.500366C160.746 0.500366 161.814 0.856241 162.627 1.56799C163.441 2.25432 163.847 3.14401 163.847 4.23705C163.847 5.38094 163.441 6.33417 162.627 7.09676C161.839 7.83393 160.772 8.20251 159.424 8.20251Z" fill="black"/>
</svg>
